{"title":"Yeh Jawaani Hai Deewani Hindi 2013 Untouched Scam Xvid","uid":8527816,"size":570056871,"categoryP":"video","categoryS":"movies","magnet":"?xt=urn:btih:35599f40dfde6534de1b40ce0b5d766733108a89&amp;dn=Yeh+Jawaani+Hai+Deewani+Hindi+2013+Untouched+Scam+Xvid&amp;tr=udp%3A%2F%2Ftracker.openbittorrent.com%3A80&amp;tr=udp%3A%2F%2Fopen.demonii.com%3A1337&amp;tr=udp%3A%2F%2Ftracker.coppersurfer.tk%3A6969&amp;tr=udp%3A%2F%2Fexodus.desync.com%3A6969","seeders":1,"leechers":0,"uploader":"ankushpatel","files":2,"time":1370069647,"description":"Description - \n\nMedia Info - \nVideo\nID : 224 (0xE0)\nFormat : MPEG Video\nFormat version : Version 2\nFormat profile : Main@Main\nFormat settings, BVOP : Yes\nFormat settings, Matrix : Default\nFormat settings, GOP : M=3, N=13\nDuration : 2h 31mn\nBit rate mode : Variable\nBit rate : 548 Kbps\nMaximum bit rate : 9 672 Kbps\nWidth : 352 pixels\nHeight : 288 pixels\nDisplay aspect ratio : 4:3\nFrame rate : 25.000 fps\nStandard : PAL\nColor space : YUV\nChroma subsampling : 4:2:0\nBit depth : 8 bits\nScan type : Progressive\nBits/(Pixel*Frame) : 0.216\nStream size : 592 MiB (79%)\n\nAudio\nID : 192 (0xC0)\nFormat : MPEG Audio\nFormat version : Version 1\nFormat profile : Layer 2\nDuration : 2h 31mn\nBit rate mode : Constant\nBit rate : 128 Kbps\nChannel(s) : 2 channels\nSampling rate : 48.0 KHz\nStream size : 138 MiB (19%)","torrent":{"xt":"urn:btih:35599f40dfde6534de1b40ce0b5d766733108a89","amp;dn":"Yeh+Jawaani+Hai+Deewani+Hindi+2013+Untouched+Scam+Xvid","amp;tr":["udp%3A%2F%2Ftracker.openbittorrent.com%3A80","udp%3A%2F%2Fopen.demonii.com%3A1337","udp%3A%2F%2Ftracker.coppersurfer.tk%3A6969","udp%3A%2F%2Fexodus.desync.com%3A6969"],"infoHash":"35599f40dfde6534de1b40ce0b5d766733108a89","infoHashBuffer":{"type":"Buffer","data":[53,89,159,64,223,222,101,52,222,27,64,206,11,93,118,103,51,16,138,137]},"announce":[],"urlList":[]}}